<svg version="1.1" viewBox="0 0 256 256" xmlns="http://www.w3.org/2000/svg">
 <path d="m128.47 256.44c-3.7798-1.1858-3.3824-0.9439-3.7798-1.1858-14.965-9.109-30.092-17.96-44.878-27.349-12.155-7.7183-23.647-16.405-32.423-28.067-5.8807-7.8149-10.408-16.233-10.403-26.446 0.027767-57.463 0.013393-114.93 0.013393-172.39 60.688 0 121.38 0 182.53 0.46866 0.46866 56.46 0.2822 112.45 0.59972 168.44 0.0794 14.006-5.6373 25.021-14.506 34.909-13.973 15.58-32.099 25.638-49.541 36.548-7.7344 4.8382-15.79 9.1624-23.653 13.799m-20.932-237.17h-57.5v6.017c0 47.822 0.20524 95.646-0.1335 143.47-0.09343 13.19 6.7279 22.26 15.606 30.157 7.3797 6.5643 15.484 12.41 23.722 17.89 11.084 7.3735 22.581 14.13 33.994 20.998 0.74449 0.44798 2.444-0.13323 3.4179-0.71037 10.024-5.9402 20.061-11.864 29.954-18.018 12.924-8.0389 25.53-16.532 35.059-28.717 4.4871-5.7376 7.4718-11.95 7.4504-19.607-0.13659-48.655-0.06944-97.31-0.06944-145.97v-5.5096z" fill="#f6ecd6"/>
 <g fill="#F6ECD6">
  <path d="m136.39 55.25c-5.1971 8.0859-7.4879 17.152-9.4641 26.442-3.9963 18.788-2.7399 37.789-2.8396 56.734-0.016274 3.0896-0.9894 4.222-3.8907 5.0481-7.6778 2.1861-11.928-0.4512-13.231-8.2178-2.4566-14.648-3.6707-29.353-2.9699-44.204 0.72594-15.385 5.1243-29.313 16.663-40.101 5.4541-5.0991 10.956-10.549 17.404-14.065 5.8849-3.2084 13.058-4.0898 19.703-5.8493 2.2713-0.60142 4.661-0.75531 6.7497-1.0758-0.87296 7.8741-1.4356 15.311-2.5766 22.659-1.5137 9.7473-3.4394 19.432-5.2635 29.129-1.2947 6.8832-5.6192 11.62-11.956 13.746-4.4085 1.4789-5.2172 3.8803-4.5717 7.7539 4.6686-1.6472 9.3943-3.3146 15.062-5.3144-0.92131 5.3811-1.2854 9.384-2.3246 13.203-2.4781 9.1077-5.3763 18.101-7.8987 27.197-1.1976 4.3189-3.4982 6.4066-8.1354 5.7201-1.5167-0.22453-3.1315 0.21376-5.4627 0.41449-0.43544-1.9534-1.2989-4.0797-1.3212-6.2147-0.1304-12.495-0.76103-25.042 0.1422-37.472 0.81851-11.264 3.274-22.421 5.2449-33.583 0.54962-3.1128 1.9817-6.065 2.8808-9.1284 0.091141-0.31053-0.70541-0.8816-0.85857-1.7987 0.2728-1.2946 0.31412-2.1224 0.40707-3.9839-0.82205 1.6309-1.157 2.2955-1.492 2.96z"/>
  <path d="m145.71 190.71c-6.2323 6.6505-13.531 19.387-16.621 34.934-2.0974-3.0503-3.933-4.9208-4.8339-7.1663-4.2241-10.528-8.0984-21.198-16.507-29.393-0.46615-0.45432-0.19982-2.3064 0.34756-3.0502 3.706-5.0354 6.3802-10.249 6.0233-16.856-0.1952-3.6135 0.83962-7.2935 1.3004-10.796-3.8642-0.38106-8.7375 0.4885-11.342-1.5462-2.0788-1.6241-1.3934-6.7863-2.0439-11.1h48.212c1.5662 8.5109 2.1861 13.419-10.538 13.436 0.097138 2.1705 0.51938 4.3849 0.23323 6.5037-1.0473 7.7548 1.8314 14.284 5.7464 20.642 0.64714 1.0508 0.23994 2.7509 0.023987 4.3927m-19.273 6.2375c0.37289 0.55403 0.7458 1.1081 0.86227 1.2811 7.9277-7.9452 6.5376-15.198-2.014-21.331-0.37046 1.3556-0.38303 3.3975-1.3748 4.6854-4.308 5.594-1.3398 9.9066 2.06 14.261 0.086586 0.11092 0.042816 0.32361 0.46651 1.1043z"/>
  <path d="m165.2 129c-2.5458 0.22482-4.6173 0.44965-6.7136 0.67716-1.3482-7.758-0.61772-8.6771 7.1127-8.6771 6.1502-4.6e-5 12.3-0.00782 18.451 0.00367 2.8218 0.005272 5.1037 0.36753 5.0203 4.2097-0.080032 3.6886-2.4542 3.7409-4.9454 3.7661-6.1496 0.062134-12.3 0.020477-18.925 0.020523z"/>
  <path d="m174.23 85c4.2819 6.1e-5 8.1224-0.27553 11.886 0.144 1.3886 0.15481 3.7956 2.1693 3.6514 2.9502-0.38309 2.0742-1.7248 5.486-2.9999 5.6327-7.7758 0.89517-15.639 1.0295-23.463 1.417-0.50539-7.5868 1.6594-9.5718 10.926-10.144z"/>
  <path d="m88.824 180h-19.547v-7.7596c9.019-0.49957 18.118-1.0036 27.175-1.5053 1.0413 7.9026-0.081459 9.2585-7.6284 9.2649z"/>
  <path d="m88.797 86c6.035 0.073448 7.6309 1.8504 6.0696 6.7263-0.31284 0.97697-2.0459 2.1013-3.148 2.1268-7.8734 0.18218-15.753 0.097252-23.974 0.097252v-8.9503h21.052z"/>
  <path d="m188.74 143.57c-3.5891 0.74135-6.9516 1.2466-10.329 1.3876-4.141 0.17293-8.2947 0.044281-12.443 0.040542-6.7699-0.006103-7.1653-0.44788-6.7898-7.3202h29.782c0 2.2798 0 3.8872-0.21994 5.8921z"/>
  <path d="m177.98 161c-5.0532-0.32703-9.6097-0.78647-14.177-0.94476-4.8008-0.16643-5.0246-3.1204-4.6496-7.3937 9.575 0.45696 18.953 0.81039 28.306 1.4981 0.92331 0.067902 2.3546 2.1832 2.3533 3.3469-0.001251 1.161-1.3769 3.1657-2.3793 3.3211-2.9258 0.4534-5.9661 0.16808-9.4537 0.17232z"/>
  <path d="m91.535 121c4.188 1.6756 4.5257 2.3564 4.2225 7.6367-9.0306 0.44324-18.064 0.88657-27.429 1.3462v-7.6746c7.3232-2.3394 15.101-0.94697 23.206-1.3083z"/>
  <path d="m160.28 178.97c-0.82492-2.171-1.1771-4.3155-1.5766-6.7482h29.786c1.1474 7.7569 1.1257 7.9094-6.5647 7.7411-7.061-0.15446-14.115-0.6315-21.645-0.99289z"/>
  <path d="m174.05 104h14.651v8.1953h-26.298c-1.1618-7.3229-0.46059-8.1938 7.1775-8.1953 1.3263-2.68e-4 2.6527-3.1e-5 4.4688-3.1e-5z"/>
  <path d="m83.957 104c1.6507 0 2.8107-8.4e-5 3.9708 1.5e-5 7.2777 5.95e-4 7.2777 6.11e-4 6.8839 7.7476h-27.555c0.34909-2.4923 0.68178-4.8675 1.0852-7.7476h15.615z"/>
  <path d="m93.693 162c-9.0901 0.001495-17.711 0.001495-26.298 0.001495-0.57196-5.9483 0.21784-6.9616 5.3587-6.9908 6.4827-0.036835 12.97-0.1318 19.445 0.10117 1.2105 0.043564 3.1796 1.3684 3.357 2.3599 0.24715 1.3816-0.86369 3.0062-1.8624 4.5283z"/>
  <path d="m85.956 139h7.3652c1.3686 6.6135 1.0778 6.9944-5.2156 6.9989-6.9314 0.004944-13.863 0.001114-20.732 0.001114-1.0564-4.2577-0.14259-6.2274 4.4294-6.1019 4.5439 0.12474 9.1102-0.56532 14.153-0.89809z"/>
 </g>
</svg>
